<svg width="168" height="42" viewBox="0 0 168 42" fill="none" xmlns="http://www.w3.org/2000/svg">
<path opacity="0.5" d="M40.0652 2.25671L30.2601 36.9917C30.2102 37.1494 30.0108 37.1967 29.8945 37.0863L23.3301 30.8583L28.2492 13.4514C28.2991 13.2937 28.1495 13.1518 27.9833 13.1991L9.63617 17.8662L3.10498 11.6697C2.98865 11.5593 3.03851 11.3701 3.20469 11.3228L39.7993 2.00444C39.9655 1.97291 40.115 2.11481 40.0652 2.25671Z" fill="#00B37E"/>
<path opacity="0.5" d="M23.3297 30.858L20.8037 39.8452C20.7538 40.0029 20.5544 40.0502 20.4381 39.9398L0.0634003 20.6251C-0.0529313 20.5147 -0.00307518 20.3255 0.163113 20.2782L9.63583 17.8658L23.3297 30.858Z" fill="#00B37E"/>
<path d="M28.2484 13.4511L23.3292 30.858L9.63533 17.8659L27.9825 13.1988C28.1487 13.1515 28.2982 13.2934 28.2484 13.4511Z" fill="#00B37E"/>
<path d="M72.4938 11.3104V29.5H68.746L61.4377 17.307V29.5H57.6898V11.3104H61.4377L68.7585 23.5159V11.3104H72.4938ZM90.1712 19.993V27.2013C89.888 27.5428 89.4508 27.9134 88.8594 28.3132C88.2681 28.7046 87.506 29.0419 86.5733 29.3251C85.6405 29.6083 84.5119 29.7499 83.1877 29.7499C82.0134 29.7499 80.9431 29.5583 79.977 29.1752C79.0109 28.7837 78.1781 28.2132 77.4785 27.4637C76.7872 26.7141 76.2542 25.798 75.8794 24.7152C75.5046 23.6242 75.3172 22.3791 75.3172 20.9799V19.843C75.3172 18.4438 75.4963 17.1987 75.8544 16.1077C76.2209 15.0166 76.7414 14.0963 77.416 13.3468C78.0906 12.5972 78.8943 12.0267 79.8271 11.6352C80.7599 11.2438 81.7968 11.0481 82.9378 11.0481C84.5203 11.0481 85.8195 11.3063 86.8356 11.8226C87.8517 12.3307 88.6262 13.0386 89.1593 13.9464C89.7006 14.8459 90.0338 15.8786 90.1587 17.0446H86.5233C86.4317 16.4283 86.2568 15.8911 85.9986 15.4331C85.7404 14.975 85.3698 14.6169 84.8867 14.3587C84.412 14.1005 83.7957 13.9714 83.0378 13.9714C82.4131 13.9714 81.8551 14.1005 81.3637 14.3587C80.8807 14.6085 80.4726 14.9792 80.1394 15.4705C79.8063 15.9619 79.5523 16.5699 79.3774 17.2945C79.2025 18.0191 79.115 18.8603 79.115 19.8181V20.9799C79.115 21.9293 79.2066 22.7705 79.3899 23.5034C79.5731 24.228 79.8438 24.8402 80.2019 25.3399C80.5684 25.8313 81.0181 26.2019 81.5511 26.4517C82.0842 26.7016 82.7046 26.8265 83.4126 26.8265C84.0039 26.8265 84.4953 26.7766 84.8867 26.6766C85.2865 26.5767 85.6071 26.4559 85.8487 26.3143C86.0985 26.1644 86.2901 26.0228 86.4233 25.8896V22.6664H83.0003V19.993H90.1712ZM93.1445 27.7635C93.1445 27.2305 93.3277 26.7849 93.6942 26.4268C94.069 26.0686 94.5645 25.8896 95.1808 25.8896C95.7971 25.8896 96.2885 26.0686 96.655 26.4268C97.0298 26.7849 97.2171 27.2305 97.2171 27.7635C97.2171 28.2965 97.0298 28.7421 96.655 29.1002C96.2885 29.4584 95.7971 29.6374 95.1808 29.6374C94.5645 29.6374 94.069 29.4584 93.6942 29.1002C93.3277 28.7421 93.1445 28.2965 93.1445 27.7635ZM111.159 23.466H114.895C114.82 24.6903 114.482 25.7771 113.883 26.7266C113.291 27.676 112.463 28.4173 111.397 28.9503C110.339 29.4833 109.065 29.7499 107.574 29.7499C106.408 29.7499 105.362 29.55 104.438 29.1502C103.514 28.7421 102.722 28.1591 102.064 27.4012C101.415 26.6433 100.919 25.7272 100.578 24.6528C100.236 23.5784 100.066 22.3749 100.066 21.0424V19.7806C100.066 18.448 100.24 17.2445 100.59 16.1701C100.948 15.0874 101.456 14.1671 102.114 13.4092C102.781 12.6513 103.576 12.0683 104.5 11.6602C105.425 11.2521 106.458 11.0481 107.599 11.0481C109.114 11.0481 110.393 11.3229 111.434 11.8726C112.483 12.4223 113.295 13.1802 113.87 14.1463C114.453 15.1124 114.803 16.2118 114.919 17.4444H111.172C111.13 16.7115 110.984 16.091 110.734 15.583C110.485 15.0666 110.106 14.6793 109.598 14.4211C109.098 14.1546 108.432 14.0214 107.599 14.0214C106.974 14.0214 106.429 14.138 105.962 14.3712C105.496 14.6044 105.104 14.9583 104.788 15.4331C104.471 15.9078 104.234 16.5075 104.076 17.232C103.926 17.9483 103.851 18.7895 103.851 19.7556V21.0424C103.851 21.9835 103.922 22.8122 104.063 23.5284C104.205 24.2364 104.421 24.836 104.713 25.3274C105.013 25.8104 105.396 26.1769 105.862 26.4268C106.337 26.6683 106.907 26.7891 107.574 26.7891C108.357 26.7891 109.002 26.6641 109.51 26.4143C110.018 26.1644 110.405 25.7938 110.672 25.3024C110.947 24.811 111.109 24.1989 111.159 23.466ZM124.751 14.4211L119.804 29.5H115.819L122.578 11.3104H125.114L124.751 14.4211ZM128.861 29.5L123.902 14.4211L123.502 11.3104H126.063L132.859 29.5H128.861ZM128.637 22.7289V25.6647H119.03V22.7289H128.637ZM144.015 24.7402C144.015 24.4154 143.965 24.1239 143.865 23.8657C143.774 23.5992 143.599 23.3577 143.341 23.1411C143.083 22.9163 142.72 22.6956 142.254 22.479C141.787 22.2625 141.184 22.0376 140.442 21.8044C139.618 21.5379 138.835 21.2381 138.094 20.9049C137.361 20.5718 136.711 20.1845 136.145 19.7431C135.587 19.2934 135.145 18.7728 134.821 18.1815C134.504 17.5902 134.346 16.9031 134.346 16.1202C134.346 15.3623 134.512 14.6752 134.846 14.0589C135.179 13.4342 135.645 12.9012 136.245 12.4598C136.844 12.01 137.552 11.6644 138.369 11.4229C139.193 11.1813 140.097 11.0606 141.079 11.0606C142.42 11.0606 143.591 11.3021 144.59 11.7852C145.589 12.2682 146.364 12.9303 146.914 13.7715C147.472 14.6127 147.751 15.5747 147.751 16.6574H144.028C144.028 16.1243 143.915 15.6579 143.69 15.2582C143.474 14.8501 143.141 14.5294 142.691 14.2962C142.25 14.063 141.692 13.9464 141.017 13.9464C140.367 13.9464 139.826 14.0464 139.393 14.2462C138.96 14.4378 138.635 14.7002 138.419 15.0333C138.202 15.3581 138.094 15.7246 138.094 16.1327C138.094 16.4408 138.169 16.7198 138.319 16.9697C138.477 17.2195 138.71 17.4527 139.018 17.6693C139.326 17.8858 139.705 18.0899 140.155 18.2814C140.605 18.473 141.125 18.6604 141.717 18.8436C142.708 19.1434 143.578 19.4807 144.328 19.8555C145.086 20.2303 145.718 20.6509 146.227 21.1173C146.735 21.5837 147.118 22.1126 147.376 22.7039C147.634 23.2952 147.763 23.9657 147.763 24.7152C147.763 25.5065 147.609 26.2144 147.301 26.839C146.993 27.4637 146.547 27.9925 145.964 28.4256C145.381 28.8587 144.686 29.1877 143.878 29.4126C143.07 29.6374 142.166 29.7499 141.167 29.7499C140.267 29.7499 139.38 29.6333 138.506 29.4001C137.631 29.1585 136.836 28.7962 136.12 28.3132C135.412 27.8301 134.846 27.2138 134.421 26.4642C133.996 25.7147 133.784 24.8277 133.784 23.8033H137.544C137.544 24.3696 137.631 24.8485 137.806 25.2399C137.981 25.6314 138.227 25.9479 138.543 26.1894C138.868 26.4309 139.251 26.6058 139.693 26.7141C140.143 26.8224 140.634 26.8765 141.167 26.8765C141.817 26.8765 142.35 26.7849 142.766 26.6017C143.191 26.4184 143.503 26.1644 143.703 25.8396C143.911 25.5148 144.015 25.1483 144.015 24.7402ZM162.442 18.7187V21.642H152.948V18.7187H162.442ZM154.06 11.3104V29.5H150.312V11.3104H154.06ZM165.116 11.3104V29.5H161.38V11.3104H165.116Z" fill="#E1E1E6"/>
</svg>
